<svg viewBox="0 0 64 64" fill="none" xmlns="http://www.w3.org/2000/svg"><rect width="8" height="8" fill="#DBE1FC"></rect><rect y="8" width="8" height="8" fill="#B6C5FA"></rect><rect y="16" width="8" height="8" fill="#90A9F9"></rect><rect y="24" width="8" height="8" fill="#688DF7"></rect><rect y="32" width="8" height="8" fill="#4471EC"></rect><rect y="40" width="8" height="8" fill="#2257D2"></rect><rect y="48" width="8" height="8" fill="#1640A6"></rect><rect y="56" width="8" height="8" fill="#0D2B76"></rect><rect x="48" width="8" height="8" fill="#CBEAD3"></rect><rect x="48" y="8" width="8" height="8" fill="#A4D7B5"></rect><rect x="48" y="16" width="8" height="8" fill="#77BE92"></rect><rect x="48" y="24" width="8" height="8" fill="#57A075"></rect><rect x="48" y="32" width="8" height="8" fill="#3F855C"></rect><rect x="48" y="40" width="8" height="8" fill="#306948"></rect><rect x="48" y="48" width="8" height="8" fill="#235136"></rect><rect x="48" y="56" width="8" height="8" fill="#163724"></rect><rect x="32" width="8" height="8" fill="#F8DCCA"></rect><rect x="32" y="8" width="8" height="8" fill="#F3BA94"></rect><rect x="32" y="16" width="8" height="8" fill="#EC9B66"></rect><rect x="32" y="24" width="8" height="8" fill="#D97E40"></rect><rect x="32" y="32" width="8" height="8" fill="#B9642A"></rect><rect x="32" y="40" width="8" height="8" fill="#944A1A"></rect><rect x="32" y="48" width="8" height="8" fill="#713712"></rect><rect x="32" y="56" width="8" height="8" fill="#51270A"></rect><rect x="56" width="8" height="8" fill="#D5E3FC"></rect><rect x="56" y="8" width="8" height="8" fill="#A3C7FA"></rect><rect x="56" y="16" width="8" height="8" fill="#6EAAF8"></rect><rect x="56" y="24" width="8" height="8" fill="#4C91E7"></rect><rect x="56" y="32" width="8" height="8" fill="#3577C8"></rect><rect x="56" y="40" width="8" height="8" fill="#295EA0"></rect><rect x="56" y="48" width="8" height="8" fill="#1C4679"></rect><rect x="56" y="56" width="8" height="8" fill="#123258"></rect><rect x="24" width="8" height="8" fill="#F8DADB"></rect><rect x="24" y="8" width="8" height="8" fill="#F1B2B3"></rect><rect x="24" y="16" width="8" height="8" fill="#ED8B8D"></rect><rect x="24" y="24" width="8" height="8" fill="#D96B6D"></rect><rect x="24" y="32" width="8" height="8" fill="#BD5156"></rect><rect x="24" y="40" width="8" height="8" fill="#96373C"></rect><rect x="24" y="48" width="8" height="8" fill="#752027"></rect><rect x="24" y="56" width="8" height="8" fill="#581119"></rect><rect x="8" width="8" height="8" fill="#EBDDFC"></rect><rect x="8" y="8" width="8" height="8" fill="#D6BDFA"></rect><rect x="8" y="16" width="8" height="8" fill="#BE9AF8"></rect><rect x="8" y="24" width="8" height="8" fill="#A079E4"></rect><rect x="8" y="32" width="8" height="8" fill="#8862CA"></rect><rect x="8" y="40" width="8" height="8" fill="#6A44AB"></rect><rect x="8" y="48" width="8" height="8" fill="#512A91"></rect><rect x="8" y="56" width="8" height="8" fill="#360F72"></rect><rect x="40" width="8" height="8" fill="#FBE8BF"></rect><rect x="40" y="8" width="8" height="8" fill="#F7D582"></rect><rect x="40" y="16" width="8" height="8" fill="#ECBB46"></rect><rect x="40" y="24" width="8" height="8" fill="#CA9E35"></rect><rect x="40" y="32" width="8" height="8" fill="#9B7926"></rect><rect x="40" y="40" width="8" height="8" fill="#74591A"></rect><rect x="40" y="48" width="8" height="8" fill="#584312"></rect><rect x="40" y="56" width="8" height="8" fill="#3D2E09"></rect><rect x="16" width="8" height="8" fill="#F8D9EA"></rect><rect x="16" y="8" width="8" height="8" fill="#F1AED7"></rect><rect x="16" y="16" width="8" height="8" fill="#EC7EC7"></rect><rect x="16" y="24" width="8" height="8" fill="#D95EB1"></rect><rect x="16" y="32" width="8" height="8" fill="#BB4998"></rect><rect x="16" y="40" width="8" height="8" fill="#943477"></rect><rect x="16" y="48" width="8" height="8" fill="#72215B"></rect><rect x="16" y="56" width="8" height="8" fill="#571042"></rect></svg>
