<svg xmlns="http://www.w3.org/2000/svg" xmlns:xlink="http://www.w3.org/1999/xlink" fill="none" version="1.1" width="204.37493896484375" height="209.17230224609375" viewBox="0 0 204.37493896484375 209.17230224609375"><defs><radialGradient cx="0" cy="0" r="1" gradientUnits="userSpaceOnUse" id="master_svg0_16_0975" gradientTransform="translate(289.2277526855469 256.316932708025) rotate(6.161242287206534) scale(112.65068705142781 103.8709544692889)"><stop offset="0%" stop-color="#7EE94C" stop-opacity="1"/><stop offset="30.714285373687744%" stop-color="#2F8DFF" stop-opacity="1"/><stop offset="100%" stop-color="#2D62FF" stop-opacity="1"/></radialGradient><linearGradient x1="-0.19496527314186096" y1="0.39207959175109863" x2="0.4299115836620331" y2="0.8677477240562439" id="master_svg1__34"><stop offset="0%" stop-color="#FFFFFF" stop-opacity="0.29535040259361267"/><stop offset="100%" stop-color="#FFFFFF" stop-opacity="0.00009999999747378752"/></linearGradient><filter id="master_svg2_0_926" filterUnits="objectBoundingBox" color-interpolation-filters="sRGB" x="0" y="0" width="82.38624572753906" height="82.3862533569336"><feFlood flood-opacity="0" result="BackgroundImageFix"/><feBlend mode="normal" in="SourceGraphic" in2="BackgroundImageFix" result="shape"/><feGaussianBlur in="BackgroundImage" stdDeviation="6.795704364776611"/><feComposite in2="SourceAlpha" operator="in" result="effect1_foregroundBlur"/><feBlend mode="normal" in="SourceGraphic" in2="effect1_foregroundBlur" result="shape"/></filter><radialGradient cx="0" cy="0" r="1" gradientUnits="userSpaceOnUse" id="master_svg3_16_2031" gradientTransform="translate(295.27790479951227 289.09618759155273) rotate(34.31426227627389) scale(73.07222406841996 64.81117782329066)"><stop offset="0%" stop-color="#7EE94C" stop-opacity="0.8015930652618408"/><stop offset="26.453283429145813%" stop-color="#8AB4E7" stop-opacity="0.6407278776168823"/><stop offset="100%" stop-color="#0025FF" stop-opacity="0.30188414454460144"/></radialGradient><radialGradient cx="0" cy="0" r="1" gradientUnits="userSpaceOnUse" id="master_svg4__53" gradientTransform="translate(295.57947658695673 255.89455350508513) rotate(70.29442059068504) scale(47.47778895870354 41.389089653989195)"><stop offset="0%" stop-color="#FFFFFF" stop-opacity="0.9734108448028564"/><stop offset="100%" stop-color="#FFFFFF" stop-opacity="0.00009999999747378752"/></radialGradient><filter id="master_svg5_0_934" filterUnits="objectBoundingBox" color-interpolation-filters="sRGB" x="-20" y="-16" width="98.51778030395508" height="86.68239974975586"><feFlood flood-opacity="0" result="BackgroundImageFix"/><feColorMatrix in="SourceAlpha" type="matrix" values="0 0 0 0 0 0 0 0 0 0 0 0 0 0 0 0 0 0 127 0"/><feOffset dy="4" dx="0"/><feGaussianBlur stdDeviation="5"/><feColorMatrix type="matrix" values="0 0 0 0 0 0 0 0 0 0 0 0 0 0 0 0 0 0 0.30000001192092896 0"/><feBlend mode="normal" in2="BackgroundImageFix" result="effect1_dropShadow"/><feBlend mode="normal" in="SourceGraphic" in2="effect1_dropShadow" result="shape"/></filter></defs><g transform="matrix(0,-1.000001311302185,-1.0000014305114746,0,413.54754043431603,413.54750920824154)"><g transform="matrix(0.7071067690849304,0.7071067690849304,-0.7071067690849304,0.7071067690849304,261.13472206388315,-131.43856574839583)"><path d="M289.2277526855469,249.49820709228516C289.2277526855469,249.49820709228516,401.2277526855469,249.49820709228516,401.2277526855469,249.49820709228516C401.2277526855469,249.49820709228516,354.1995526855469,363.49420709228514,354.1995526855469,363.49420709228514C352.70065268554686,367.1272070922852,349.15825268554687,369.49820709228516,345.2277526855469,369.49820709228516C345.2277526855469,369.49820709228516,345.2277526855469,369.49820709228516,345.2277526855469,369.49820709228516C341.2972526855469,369.49820709228516,337.7548526855469,367.1272070922852,336.25595268554684,363.49420709228514C336.25595268554684,363.49420709228514,289.2277526855469,249.49820709228516,289.2277526855469,249.49820709228516C289.2277526855469,249.49820709228516,289.2277526855469,249.49820709228516,289.2277526855469,249.49820709228516Z" fill-rule="evenodd" fill="url(#master_svg0_16_0975)" fill-opacity="1"/><path d="M336.25595268554684,363.49420709228514L289.2277526855469,249.49820709228516L401.2277526855469,249.49820709228516L400.81475268554686,250.49820709228516L354.1995526855469,363.49420709228514C352.70065268554686,367.1272070922852,349.15825268554687,369.49820709228516,345.2277526855469,369.49820709228516C341.2972526855469,369.49820709228516,337.7548526855469,367.1272070922852,336.25595268554684,363.49420709228514ZM337.1803526855469,363.11320709228517L290.7220526855469,250.49820709228516L399.73375268554685,250.49820709228516L353.27515268554686,363.11320709228517Q352.26675268554686,365.5572070922851,350.06935268554685,367.02720709228515Q347.8717526855469,368.49820709228516,345.2277526855469,368.49820709228516Q342.58375268554687,368.49820709228516,340.3861526855469,367.02720709228515Q338.1887526855469,365.5572070922851,337.1803526855469,363.11320709228517Z" fill-rule="evenodd" fill="url(#master_svg1__34)" fill-opacity="1"/></g><g filter="url(#master_svg2_0_926)"><path d="M317.51201413574216,300.40986091308594C339.3814141357422,322.2792609130859,362.17531413574216,334.9425609130859,368.4237141357422,328.69416091308597C373.2974141357422,323.8204609130859,366.66531413574216,308.88036091308595,353.1331141357422,292.1644609130859C353.1331141357422,292.1644609130859,352.0787141357422,290.8752609130859,352.0787141357422,290.8752609130859C350.6548141357422,289.15206091308596,349.1595141357422,287.41236091308593,347.5979141357422,285.6651609130859C347.5979141357422,285.6651609130859,346.41441413574216,284.3535609130859,346.41441413574216,284.3535609130859C344.42121413574216,282.1655609130859,342.3264141357422,279.9694609130859,340.1394141357422,277.7824609130859C337.9525141357422,275.59556091308593,335.7563141357422,273.50066091308594,333.56841413574216,271.50756091308597C333.56841413574216,271.50756091308597,332.2567141357422,270.32396091308595,332.2567141357422,270.32396091308595C330.50951413574217,268.76236091308596,328.76991413574217,267.26716091308595,327.0466141357422,265.84326091308594C327.0466141357422,265.84326091308594,325.7574141357422,264.7887609130859,325.7574141357422,264.7887609130859C309.0415141357422,251.25659091308594,294.1015041357422,244.62446091308593,289.2277541357422,249.49820091308592C282.9793741357422,255.74659091308592,295.6426741357422,278.5405609130859,317.51201413574216,300.40986091308594C317.51201413574216,300.40986091308594,317.51201413574216,300.40986091308594,317.51201413574216,300.40986091308594Z" fill-rule="evenodd" fill="url(#master_svg3_16_2031)" fill-opacity="1"/><path d="M317.51201413574216,300.40986091308594C339.3814141357422,322.2792609130859,362.17531413574216,334.9425609130859,368.4237141357422,328.69416091308597C373.2974141357422,323.8204609130859,366.66531413574216,308.88036091308595,353.1331141357422,292.1644609130859L352.0787141357422,290.8752609130859C350.6548141357422,289.15206091308596,349.1595141357422,287.41236091308593,347.5979141357422,285.6651609130859L346.41441413574216,284.3535609130859C344.42121413574216,282.1655609130859,342.3264141357422,279.9694609130859,340.1394141357422,277.7824609130859C337.9525141357422,275.59556091308593,335.7563141357422,273.50066091308594,333.56841413574216,271.50756091308597L332.2567141357422,270.32396091308595C330.50951413574217,268.76236091308596,328.76991413574217,267.26716091308595,327.0466141357422,265.84326091308594L325.7574141357422,264.7887609130859C309.0415141357422,251.25659091308594,294.1015041357422,244.62446091308593,289.2277541357422,249.49820091308592C282.9793741357422,255.74659091308592,295.6426741357422,278.5405609130859,317.51201413574216,300.40986091308594ZM318.2191141357422,299.70276091308597Q334.52221413574216,316.00586091308594,349.3114141357422,324.22206091308595Q356.2186141357422,328.0593609130859,361.0982141357422,329.00446091308595Q365.79051413574217,329.9131609130859,367.7166141357422,327.98706091308594Q370.8472141357422,324.8564609130859,366.7606141357422,315.26196091308594Q362.5588141357422,305.39696091308593,352.3559141357422,292.79366091308594L351.3046141357422,291.50836091308594Q349.1663141357422,288.9205609130859,346.8523141357422,286.3315609130859L345.6720141357422,285.02346091308596Q342.66121413574217,281.71846091308595,339.4323141357422,278.48956091308594Q336.2035141357422,275.26086091308593,332.8950141357422,272.2468609130859L331.5868141357422,271.06636091308593Q329.0012141357422,268.7554609130859,326.4096141357422,266.6141609130859L325.12431413574217,265.5627609130859Q312.5248141357422,255.36310091308593,302.6599141357422,251.16129091308594Q293.0654741357422,247.07469191308593,289.93485413574217,250.20531091308592Q288.0087611357422,252.13141091308594,288.9175141357422,256.8236809130859Q289.86256413574216,261.70336091308593,293.69989413574217,268.6105609130859Q301.9161141357422,283.3997609130859,318.2191141357422,299.70276091308597Z" fill-rule="evenodd" fill="url(#master_svg4__53)" fill-opacity="1"/></g><g transform="matrix(0.2923717796802521,0.9563047289848328,-0.9563047289848328,0.2923717796802521,512.6938422169356,-222.2593329606006)"><path d="M411.7419298144531,235.30334281921387C411.7419298144531,235.30334281921387,406.5300598144531,255.30334281921387,406.5300598144531,255.30334281921387C406.5300598144531,255.30334281921387,430.5300598144531,250.25374281921387,430.5300598144531,250.25374281921387C430.5300598144531,250.25374281921387,411.7419298144531,235.30334281921387,411.7419298144531,235.30334281921387C411.7419298144531,235.30334281921387,411.7419298144531,235.30334281921387,411.7419298144531,235.30334281921387Z" fill-rule="evenodd" fill="#2D62FF" fill-opacity="0.6000000238418579"/></g><g transform="matrix(0.9612616896629333,0.2756373882293701,-0.2756373882293701,0.9612616896629333,70.63971136333839,-77.72568133798234)" style="opacity:0.8500000238418579;"><path d="M315.53269986572263,212.45096397399902C315.53269986572263,212.45096397399902,311.84329986572266,240.45096397399902,311.84329986572266,240.45096397399902C311.84329986572266,240.45096397399902,331.84329986572266,233.88406397399902,331.84329986572266,233.88406397399902C331.84329986572266,233.88406397399902,315.53269986572263,212.45096397399902,315.53269986572263,212.45096397399902C315.53269986572263,212.45096397399902,315.53269986572263,212.45096397399902,315.53269986572263,212.45096397399902Z" fill-rule="evenodd" fill="#7EE94C" fill-opacity="0.3499999940395355"/></g><g transform="matrix(0.7071067690849304,0.7071067690849304,-0.7071067690849304,0.7071067690849304,253.5941353834187,-193.88578515964946)"><ellipse cx="367.8379211425781" cy="216.17230224609375" rx="7" ry="7" fill="#2D62FF" fill-opacity="0.4300000071525574"/></g><g transform="matrix(0.7071067690849304,0.7071067690849304,-0.7071067690849304,0.7071067690849304,315.2301787196234,-166.63957615634217)"><ellipse cx="365.76686096191406" cy="304.19669342041016" rx="7" ry="7" fill="#2D62FF" fill-opacity="0.8999999761581421"/></g><g transform="matrix(0.9876883625984192,0.1564343422651291,-0.1564343422651291,0.9876883625984192,42.11510815481881,-49.23453952807563)" filter="url(#master_svg5_0_934)"><path d="M335.42052877441404,245.85719193115236C334.5442277744141,248.17988193115235,335.71450877441407,250.77347193115236,338.03586877441404,251.65329193115235L338.57587877441404,251.85799193115236L339.5431687744141,252.23779193115234L340.45764877441405,252.60489193115234L341.33408877441406,252.96544193115236L341.7647587744141,253.14634193115234C345.46736877441407,254.71204193115236,348.39246877441406,256.24254193115235,350.56776877441405,257.81944193115237L350.5900687744141,257.8361419311523L349.93056877441404,258.09694193115234L349.1579687744141,258.40944193115234L348.41156877441404,258.71994193115233C348.16876877441405,258.82264193115236,347.9326687744141,258.9242419311523,347.70586877441406,259.02404193115234L347.05526877441406,259.31704193115235C346.84916877441407,259.41234193115235,346.65466877441406,259.50504193115233,346.47426877441404,259.59444193115235C338.68058877441405,263.45294193115234,333.84986877441406,269.00384193115235,333.84986877441406,277.03924193115233C333.84986877441406,283.0449419311523,338.7850887744141,289.00834193115236,345.05366877441406,289.5782419311523C352.20966877441407,290.2288419311524,358.4392687744141,284.3404419311523,362.8624687744141,272.76154193115235L363.21716877441406,271.8103419311523L363.35196877441405,271.4292419311523C364.4421687744141,268.25974193115235,364.68936877441405,265.24554193115233,364.16346877441407,262.43304193115233L364.14406877441405,262.33914193115237L364.54846877441406,262.23754193115235C369.3604687744141,261.09154193115234,373.1504687744141,262.44014193115237,376.46806877441406,265.90304193115236C378.93076877441405,268.47344193115237,381.82156877441406,275.38994193115235,383.5406687744141,279.90834193115234C384.4149687744141,282.20614193115233,386.92626877441404,283.47324193115236,389.2696687744141,282.7299419311523C391.69346877441404,281.9611419311523,392.9967687744141,279.34944193115234,392.06576877441404,276.98324193115235C389.99886877441406,271.73054193115235,386.30346877441406,263.15944193115234,382.9668687744141,259.6767419311523L382.68566877441407,259.3875419311523C376.66016877441405,253.28084193115234,368.95766877441406,251.26478193115236,360.20336877441406,254.13564193115235L359.96106877441406,254.21614193115235L359.84356877441405,254.08524193115235L359.5866687744141,253.80784193115235C356.18476877441407,250.19761193115235,351.41846877441407,247.41887193115235,344.7972687744141,244.65851193115233L343.8536687744141,244.27019193115234L342.87592877441404,243.87759693115234L341.8482887744141,243.47396693115235L341.22581877441405,243.23798693115234C338.89938877441404,242.35601493115234,336.29876877441404,243.52934693115233,335.42052877441404,245.85719193115236ZM355.38606877441407,265.64314193115234L355.38526877441404,265.72434193115237C355.35236877441406,266.6808419311524,355.14266877441406,267.68024193115235,354.75956877441405,268.73284193115234L354.44366877441405,269.5823419311523C354.39086877441406,269.72094193115237,354.33816877441404,269.85804193115234,354.28536877441405,269.99374193115233L353.9684687744141,270.7904419311524L353.6511687744141,271.5524419311523C353.59826877441407,271.67664193115235,353.54536877441404,271.79934193115236,353.49256877441405,271.9206419311523L353.17526877441406,272.6314419311523C353.01676877441406,272.97844193115236,352.85826877441406,273.31294193115235,352.70006877441404,273.63494193115235L352.38406877441406,274.26274193115233C352.3314687744141,274.36464193115233,352.27886877441404,274.4652419311523,352.2263687744141,274.5644419311524L351.91176877441404,275.14364193115233C349.6618687744141,279.1801419311523,347.5112687744141,280.76454193115234,345.8685687744141,280.6151419311523C344.43556877441404,280.4849419311523,342.84986877441406,278.56884193115235,342.84986877441406,277.03924193115233C342.84986877441406,273.10884193115237,345.4147687744141,270.1615419311523,350.46736877441407,267.66004193115236L350.88026877441405,267.46374193115236L351.3595687744141,267.2494419311523L351.89526877441403,267.02034193115236L352.7827687744141,266.65594193115237L353.7410687744141,266.27604193115235L355.38606877441407,265.64314193115234Z" fill-rule="evenodd" fill="#FFFFFF" fill-opacity="1"/></g></g></svg>