<svg xmlns="http://www.w3.org/2000/svg" xmlns:xlink="http://www.w3.org/1999/xlink" fill="none" version="1.1" width="209.1719970703125" height="204.37469482421875" viewBox="0 0 209.1719970703125 204.37469482421875"><defs><radialGradient cx="0" cy="0" r="1" gradientUnits="userSpaceOnUse" id="master_svg0__51" gradientTransform="translate(93.81321573257446 51.3035032749176) rotate(4.401716257947328) scale(103.34441043471178 95.28998741054191)"><stop offset="0%" stop-color="#F065E2" stop-opacity="1"/><stop offset="100%" stop-color="#3748FA" stop-opacity="1"/></radialGradient><linearGradient x1="-0.19496527314186096" y1="0.39207959175109863" x2="0.4299115836620331" y2="0.8677477240562439" id="master_svg1__34"><stop offset="0%" stop-color="#FFFFFF" stop-opacity="0.29535040259361267"/><stop offset="100%" stop-color="#FFFFFF" stop-opacity="0.00009999999747378752"/></linearGradient><filter id="master_svg2_0_926" filterUnits="objectBoundingBox" color-interpolation-filters="sRGB" x="0" y="0" width="82.38624572753906" height="82.3862533569336"><feFlood flood-opacity="0" result="BackgroundImageFix"/><feBlend mode="normal" in="SourceGraphic" in2="BackgroundImageFix" result="shape"/><feGaussianBlur in="BackgroundImage" stdDeviation="6.795704364776611"/><feComposite in2="SourceAlpha" operator="in" result="effect1_foregroundBlur"/><feBlend mode="normal" in="SourceGraphic" in2="effect1_foregroundBlur" result="shape"/></filter><radialGradient cx="0" cy="0" r="1" gradientUnits="userSpaceOnUse" id="master_svg3__52" gradientTransform="translate(90.90296583466852 79.92388534545898) rotate(34.31426227627389) scale(73.07222406841996 64.81117782329066)"><stop offset="0%" stop-color="#FFFFFF" stop-opacity="0.8015930652618408"/><stop offset="100%" stop-color="#889AFF" stop-opacity="0.30188414454460144"/></radialGradient><radialGradient cx="0" cy="0" r="1" gradientUnits="userSpaceOnUse" id="master_svg4__53" gradientTransform="translate(91.20453762211298 46.72225125899138) rotate(70.29442059068504) scale(47.47778895870354 41.389089653989195)"><stop offset="0%" stop-color="#FFFFFF" stop-opacity="0.9734108448028564"/><stop offset="100%" stop-color="#FFFFFF" stop-opacity="0.00009999999747378752"/></radialGradient></defs><g><g transform="matrix(0.7071067690849304,0.7071067690849304,-0.7071067690849304,0.7071067690849304,53.36753504910803,-48.18881439783718)"><path d="M84.85281372070312,40.325904846191406C84.85281372070312,40.325904846191406,196.85281372070312,40.325904846191406,196.85281372070312,40.325904846191406C196.85281372070312,40.325904846191406,149.82461372070313,154.3219048461914,149.82461372070313,154.3219048461914C148.32571372070313,157.95490484619143,144.78331372070312,160.3259048461914,140.85281372070312,160.3259048461914C140.85281372070312,160.3259048461914,140.85281372070312,160.3259048461914,140.85281372070312,160.3259048461914C136.92231372070313,160.3259048461914,133.37991372070312,157.95490484619143,131.88101372070312,154.3219048461914C131.88101372070312,154.3219048461914,84.85281372070312,40.325904846191406,84.85281372070312,40.325904846191406C84.85281372070312,40.325904846191406,84.85281372070312,40.325904846191406,84.85281372070312,40.325904846191406Z" fill-rule="evenodd" fill="url(#master_svg0__51)" fill-opacity="1"/><path d="M131.88101372070312,154.3219048461914L84.85281372070312,40.325904846191406L196.85281372070312,40.325904846191406L196.4398137207031,41.325904846191406L149.82461372070313,154.3219048461914C148.32571372070313,157.95490484619143,144.78331372070312,160.3259048461914,140.85281372070312,160.3259048461914C136.92231372070313,160.3259048461914,133.37991372070312,157.95490484619143,131.88101372070312,154.3219048461914ZM132.80541372070311,153.94090484619142L86.34711372070312,41.325904846191406L195.35881372070313,41.325904846191406L148.9002137207031,153.94090484619142Q147.8918137207031,156.3849048461914,145.69441372070312,157.8549048461914Q143.49681372070313,159.3259048461914,140.85281372070312,159.3259048461914Q138.20881372070312,159.3259048461914,136.01121372070313,157.8549048461914Q133.81381372070314,156.3849048461914,132.80541372070311,153.94090484619142Z" fill-rule="evenodd" fill="url(#master_svg1__34)" fill-opacity="1"/></g><g filter="url(#master_svg2_0_926)"><path d="M113.13707517089844,91.23755866699219C135.00647517089845,113.10695866699218,157.80037517089843,125.77025866699219,164.04877517089844,119.52185866699219C168.92247517089845,114.64815866699219,162.29037517089844,99.70805866699219,148.75817517089843,82.9921586669922C148.75817517089843,82.9921586669922,147.70377517089844,81.70295866699219,147.70377517089844,81.70295866699219C146.27987517089844,79.97975866699218,144.78457517089845,78.24005866699218,143.22297517089845,76.49285866699219C143.22297517089845,76.49285866699219,142.03947517089844,75.18125866699219,142.03947517089844,75.18125866699219C140.04627517089844,72.99325866699219,137.95147517089845,70.79715866699219,135.76447517089844,68.61015866699219C133.57757517089843,66.42325866699218,131.38137517089842,64.32835866699219,129.19347517089844,62.33525866699219C129.19347517089844,62.33525866699219,127.88177517089844,61.15165866699219,127.88177517089844,61.15165866699219C126.13457517089844,59.59005866699219,124.39497517089845,58.09485866699219,122.67167517089844,56.67095866699219C122.67167517089844,56.67095866699219,121.38247517089843,55.61645866699219,121.38247517089843,55.61645866699219C104.66657517089844,42.08428866699219,89.72656517089844,35.45215866699219,84.85281517089844,40.32589866699219C78.60443517089844,46.57428866699219,91.26773517089843,69.36825866699219,113.13707517089844,91.23755866699219C113.13707517089844,91.23755866699219,113.13707517089844,91.23755866699219,113.13707517089844,91.23755866699219Z" fill-rule="evenodd" fill="url(#master_svg3__52)" fill-opacity="1"/><path d="M113.13707517089844,91.23755866699219C135.00647517089845,113.10695866699218,157.80037517089843,125.77025866699219,164.04877517089844,119.52185866699219C168.92247517089845,114.64815866699219,162.29037517089844,99.70805866699219,148.75817517089843,82.9921586669922L147.70377517089844,81.70295866699219C146.27987517089844,79.97975866699218,144.78457517089845,78.24005866699218,143.22297517089845,76.49285866699219L142.03947517089844,75.18125866699219C140.04627517089844,72.99325866699219,137.95147517089845,70.79715866699219,135.76447517089844,68.61015866699219C133.57757517089843,66.42325866699218,131.38137517089842,64.32835866699219,129.19347517089844,62.33525866699219L127.88177517089844,61.15165866699219C126.13457517089844,59.59005866699219,124.39497517089845,58.09485866699219,122.67167517089844,56.67095866699219L121.38247517089843,55.61645866699219C104.66657517089844,42.08428866699219,89.72656517089844,35.45215866699219,84.85281517089844,40.32589866699219C78.60443517089844,46.57428866699219,91.26773517089843,69.36825866699219,113.13707517089844,91.23755866699219ZM113.84417517089844,90.53045866699219Q130.14727517089844,106.83355866699219,144.93647517089843,115.04975866699219Q151.84367517089845,118.88705866699219,156.72327517089843,119.83215866699219Q161.41557517089842,120.74085866699218,163.34167517089844,118.81475866699219Q166.47227517089846,115.68415866699219,162.38567517089842,106.0896586669922Q158.18387517089843,96.22465866699218,147.98097517089843,83.6213586669922L146.92967517089843,82.33605866699219Q144.79137517089845,79.74825866699219,142.47737517089843,77.15925866699219L141.29707517089844,75.85115866699218Q138.28627517089842,72.54615866699218,135.05737517089844,69.31725866699219Q131.82857517089843,66.08855866699218,128.52007517089845,63.07455866699219L127.21187517089844,61.89405866699219Q124.62627517089844,59.58315866699219,122.03467517089844,57.44185866699219L120.74937517089845,56.39045866699219Q108.14987517089844,46.19079866699219,98.28497517089843,41.988988666992185Q88.69053517089844,37.902389666992185,85.55991517089844,41.03300866699219Q83.63382217089844,42.959108666992186,84.54257517089843,47.65137866699219Q85.48762517089844,52.53105866699219,89.32495517089843,59.43825866699218Q97.54117517089844,74.22745866699219,113.84417517089844,90.53045866699219Z" fill-rule="evenodd" fill="url(#master_svg4__53)" fill-opacity="1"/></g><g transform="matrix(0.2923717796802521,0.9563047289848328,-0.9563047289848328,0.2923717796802521,168.03990606870195,-174.8308363211217)"><path d="M207.36699084960938,26.131040573120117C207.36699084960938,26.131040573120117,202.15512084960938,46.13104057312012,202.15512084960938,46.13104057312012C202.15512084960938,46.13104057312012,226.15512084960938,41.08144057312012,226.15512084960938,41.08144057312012C226.15512084960938,41.08144057312012,207.36699084960938,26.131040573120117,207.36699084960938,26.131040573120117C207.36699084960938,26.131040573120117,207.36699084960938,26.131040573120117,207.36699084960938,26.131040573120117Z" fill-rule="evenodd" fill="#FFDAFE" fill-opacity="1"/></g><g transform="matrix(0.9612616896629333,0.2756373882293701,-0.2756373882293701,0.9612616896629333,5.06686447156153,-29.49528850050376)"><path d="M111.15776090087891,3.2786617279052734C111.15776090087891,3.2786617279052734,107.4683609008789,31.278661727905273,107.4683609008789,31.278661727905273C107.4683609008789,31.278661727905273,127.4683609008789,24.711761727905273,127.4683609008789,24.711761727905273C127.4683609008789,24.711761727905273,111.15776090087891,3.2786617279052734,111.15776090087891,3.2786617279052734C111.15776090087891,3.2786617279052734,111.15776090087891,3.2786617279052734,111.15776090087891,3.2786617279052734Z" fill-rule="evenodd" fill="#5B72F2" fill-opacity="1"/></g><g transform="matrix(0.7071067690849304,0.7071067690849304,-0.7071067690849304,0.7071067690849304,45.82694836864357,-110.6360338090908)"><ellipse cx="163.46298217773438" cy="7" rx="7" ry="7" fill="#E965E2" fill-opacity="1"/></g><g transform="matrix(0.7071067690849304,0.7071067690849304,-0.7071067690849304,0.7071067690849304,107.46299170484826,-83.38982480578352)"><ellipse cx="161.3919219970703" cy="95.0243911743164" rx="7" ry="7" fill="#E965E2" fill-opacity="1"/></g><g transform="matrix(0.9876883625984192,0.1564343422651291,-0.1564343422651291,0.9876883625984192,6.877186490362988,-19.83853391534217)"><path d="M131.04558980957032,36.68488968505859C130.1692888095703,39.007579685058595,131.33956980957032,41.60116968505859,133.66092980957032,42.480989685058596L134.20093980957031,42.68568968505859L135.1682298095703,43.065489685058594L136.0827098095703,43.432589685058595L136.9591498095703,43.79313968505859L137.38981980957033,43.97403968505859C141.09242980957032,45.53973968505859,144.0175298095703,47.070239685058596,146.1928298095703,48.64713968505859L146.21512980957033,48.66383968505859L145.55562980957032,48.924639685058594L144.7830298095703,49.237139685058594L144.03662980957031,49.54763968505859C143.7938298095703,49.6503396850586,143.5577298095703,49.751939685058595,143.3309298095703,49.85173968505859L142.6803298095703,50.144739685058596C142.47422980957032,50.24003968505859,142.2797298095703,50.3327396850586,142.09932980957032,50.422139685058596C134.30564980957033,54.280639685058595,129.4749298095703,59.831539685058594,129.4749298095703,67.8669396850586C129.4749298095703,73.8726396850586,134.4101498095703,79.8360396850586,140.6787298095703,80.4059396850586C147.83472980957032,81.0565396850586,154.06432980957032,75.16813968505859,158.4875298095703,63.589239685058594L158.8422298095703,62.638039685058594L158.9770298095703,62.2569396850586C160.0672298095703,59.0874396850586,160.3144298095703,56.073239685058596,159.78852980957032,53.260739685058596L159.7691298095703,53.16683968505859L160.1735298095703,53.06523968505859C164.98552980957032,51.91923968505859,168.77552980957032,53.26783968505859,172.0931298095703,56.730739685058595C174.5558298095703,59.301139685058594,177.4466298095703,66.2176396850586,179.1657298095703,70.73603968505859C180.0400298095703,73.0338396850586,182.55132980957032,74.3009396850586,184.89472980957032,73.5576396850586C187.31852980957032,72.78883968505859,188.62182980957033,70.17713968505859,187.69082980957032,67.8109396850586C185.6239298095703,62.558239685058595,181.9285298095703,53.987139685058594,178.5919298095703,50.50443968505859L178.31072980957032,50.21523968505859C172.2852298095703,44.108539685058595,164.5827298095703,42.09247968505859,155.8284298095703,44.96333968505859L155.5861298095703,45.04383968505859L155.4686298095703,44.912939685058596L155.2117298095703,44.635539685058596C151.80982980957032,41.025309685058595,147.04352980957032,38.246569685058596,140.4223298095703,35.4862096850586L139.47872980957032,35.0978896850586L138.5009898095703,34.7052946850586L137.47334980957032,34.3016646850586L136.8508798095703,34.06568468505859C134.5244498095703,33.183712685058595,131.92382980957032,34.3570446850586,131.04558980957032,36.68488968505859ZM151.01112980957032,56.470939685058596L151.01032980957032,56.55213968505859C150.9774298095703,57.508539685058594,150.7677298095703,58.50803968505859,150.3846298095703,59.56063968505859L150.0687298095703,60.41003968505859C150.0159298095703,60.54863968505859,149.96322980957032,60.685839685058596,149.9104298095703,60.821539685058596L149.59352980957033,61.6182396850586L149.2762298095703,62.3802396850586C149.22332980957032,62.504339685058596,149.17042980957032,62.62703968505859,149.1176298095703,62.748339685058596L148.80032980957031,63.45923968505859C148.6418298095703,63.80623968505859,148.4833298095703,64.1406396850586,148.3251298095703,64.4627396850586L148.0091298095703,65.09053968505859C147.95652980957033,65.19243968505859,147.90392980957031,65.2929396850586,147.8514298095703,65.3922396850586L147.53682980957032,65.97143968505858C145.28692980957032,70.0079396850586,143.13632980957033,71.59233968505859,141.4936298095703,71.44293968505859C140.06062980957032,71.3127396850586,138.4749298095703,69.3966396850586,138.4749298095703,67.86703968505859C138.4749298095703,63.93653968505859,141.0398298095703,60.989339685058596,146.09242980957032,58.48783968505859L146.5053298095703,58.29143968505859L146.98462980957032,58.07723968505859L147.5203298095703,57.8481396850586L148.4078298095703,57.48363968505859L149.3661298095703,57.10373968505859L151.01112980957032,56.470939685058596Z" fill-rule="evenodd" fill="#FFFFFF" fill-opacity="1"/></g></g></svg>