<svg width="32" height="32" viewBox="-3 -2 26 32" fill="none" xmlns="http://www.w3.org/2000/svg">
  <g clip-path="url(#clip0_16025_26913)">
    <path d="M7.97158 26.1814H3.28026C3.20254 26.1813 3.12575 26.1646 3.05505 26.1323C2.98435 26.1001 2.92139 26.053 2.87041 25.9944C2.81943 25.9357 2.78162 25.8668 2.75952 25.7923C2.73741 25.7178 2.73154 25.6394 2.74229 25.5625L3.65626 20.4026H9.44088L8.49798 25.7476C8.47291 25.8691 8.40703 25.9784 8.31127 26.0573C8.21552 26.1362 8.09566 26.18 7.97158 26.1814V26.1814Z" fill="#009BFF"></path>
    <path d="M21.1779 8.78706H5.69824L6.71634 3.00244H21.9877C22.0714 2.99445 22.1557 3.00616 22.234 3.03663C22.3123 3.06709 22.3823 3.11547 22.4386 3.17789C22.4948 3.2403 22.5356 3.31502 22.5578 3.39605C22.58 3.47709 22.5828 3.56219 22.5662 3.64453L21.7101 8.35321C21.6869 8.47672 21.6207 8.58803 21.5233 8.66744C21.4259 8.74684 21.3035 8.78922 21.1779 8.78706Z" fill="url(#paint0_linear_16025_26913)"></path>
    <path d="M5.69814 8.78706H0.549824C0.471061 8.78794 0.393048 8.77169 0.321181 8.73945C0.249315 8.70721 0.185311 8.65974 0.133598 8.60033C0.081885 8.54091 0.0436979 8.47097 0.0216786 8.39534C-0.000340748 8.31972 -0.00566652 8.24021 0.00606973 8.16232L0.84484 3.44785C0.867754 3.32323 0.933469 3.21053 1.03064 3.12921C1.1278 3.04788 1.25032 3.00304 1.37702 3.00244H6.71623L5.69814 8.78706Z" fill="#0064FF"></path>
    <path d="M9.44658 20.3852H3.65039L5.69815 8.79863H11.4943L9.44658 20.3852Z" fill="url(#paint1_linear_16025_26913)"></path>
  </g>
  <defs>
    <linearGradient id="paint0_linear_16025_26913" x1="6.19468" y1="5.90053" x2="21.6312" y2="8.6791" gradientUnits="userSpaceOnUse">
      <stop offset="0.03" stop-color="#E9FFFF"></stop>
      <stop offset="0.17" stop-color="#C4FAC9"></stop>
      <stop offset="0.33" stop-color="#A0F694"></stop>
      <stop offset="0.48" stop-color="#82F269"></stop>
      <stop offset="0.63" stop-color="#6AEF47"></stop>
      <stop offset="0.76" stop-color="#5AED2F"></stop>
      <stop offset="0.89" stop-color="#4FEB20"></stop>
      <stop offset="1" stop-color="#4CEB1B"></stop>
    </linearGradient>
    <linearGradient id="paint1_linear_16025_26913" x1="8.58918" y1="8.37635" x2="8.69869" y2="19.278" gradientUnits="userSpaceOnUse">
      <stop stop-color="#009BFF"></stop>
      <stop offset="0.35" stop-color="#0081FE"></stop>
      <stop offset="0.75" stop-color="#006AFD"></stop>
      <stop offset="1" stop-color="#0062FD"></stop>
    </linearGradient>
    <clipPath id="clip0_16025_26913">
      <rect width="121.367" height="32" fill="white"></rect>
    </clipPath>
  </defs>
</svg>
